<svg viewBox="0 0 100 100" xmlns="http://www.w3.org/2000/svg">
  <path fill="#3B82F6" d="M85.44 49.17c0 1.56-.17 3.12-.51 4.68-1.02 5.53-3.9 10.21-7.8 13.6-4.25 3.73-9.78 5.97-15.82 5.97h-22.1c-6.04 0-11.57-2.24-15.82-5.97-3.9-3.39-6.78-8.07-7.8-13.6-.34-1.56-.51-3.12-.51-4.68 0-13.26 10.72-24.02 23.93-24.02h22.5c13.21 0 23.93 10.76 23.93 24.02z"/>
  <path fill="#60A5FA" d="M85.44 49.17c0 1.56-.17 3.12-.51 4.68-1.02 5.53-3.9 10.21-7.8 13.6-4.25 3.73-9.78 5.97-15.82 5.97h-22.1c-6.04 0-11.57-2.24-15.82-5.97-3.9-3.39-6.78-8.07-7.8-13.6-.34-1.56-.51-3.12-.51-4.68 0-13.26 10.72-24.02 23.93-24.02h22.5c13.21 0 23.93 10.76 23.93 24.02z"/>
  <path fill="#93C5FD" d="M77.13 67.45c-4.25 3.73-9.78 5.97-15.82 5.97h-22.1c-6.04 0-11.57-2.24-15.82-5.97 4.25-3.73 9.78-5.97 15.82-5.97h22.1c6.04 0 11.57 2.24 15.82 5.97z"/>
  <path fill="#BFDBFE" d="M84.93 53.85c-1.02 5.53-3.9 10.21-7.8 13.6-4.25 3.73-9.78 5.97-15.82 5.97h-22.1c-6.04 0-11.57-2.24-15.82-5.97-3.9-3.39-6.78-8.07-7.8-13.6 1.02-5.53 3.9-10.21 7.8-13.6 4.25-3.73 9.78-5.97 15.82-5.97h22.1c6.04 0 11.57 2.24 15.82 5.97 3.9 3.39 6.78 8.07 7.8 13.6z"/>
</svg> 